<svg width="140" height="140" viewBox="0 0 140 140" fill="none" xmlns="http://www.w3.org/2000/svg">
<path fill-rule="evenodd" clip-rule="evenodd" d="M122.115 23.2546C117.746 18.373 110.265 17.9738 105.405 22.363C100.546 26.7521 100.149 34.2675 104.518 39.1491C111.874 47.3678 116.336 58.2111 116.336 70.1293C116.336 87.7569 106.541 103.086 92.1211 110.926C96.4056 112.91 99.8217 116.709 101.168 121.638C102.304 125.795 101.765 130.017 99.9626 133.579C123.627 122.354 140 98.1623 140 70.1293C140 52.1178 133.226 35.6678 122.115 23.2546Z" fill="#D01926"/>
<path d="M43.1574 32.0747C50.6272 26.8406 59.6985 23.7726 69.5186 23.7726C79.3387 23.7726 88.41 26.8406 95.8798 32.0747C96.0568 32.1987 96.236 32.3172 96.4171 32.4302C96.0554 27.4734 97.8985 22.4074 101.862 18.8272C104.685 16.2775 108.14 14.882 111.654 14.6101C111.012 13.8559 110.266 13.1707 109.418 12.5768C98.106 4.65019 84.3351 0 69.5186 0C54.702 0 40.9312 4.65019 29.6188 12.5768C24.259 16.3324 22.9448 23.7417 26.6834 29.1259C30.4219 34.5101 37.7976 35.8303 43.1574 32.0747Z" fill="#9E8550"/>
<path fill-rule="evenodd" clip-rule="evenodd" d="M19.8469 21.4043C19.0943 21.9249 18.3902 22.542 17.7524 23.2546C12.4214 29.2107 8.08621 36.0968 5.01864 43.6493C2.54989 49.7274 5.45353 56.6652 11.5041 59.1452C17.5547 61.6252 24.4609 58.7083 26.9297 52.6301C28.9516 47.6523 31.8155 43.098 35.35 39.149C35.4103 39.0816 35.4698 39.0136 35.5284 38.9451C30.6018 38.6847 25.8419 36.2257 22.8009 31.8461C20.5959 28.6705 19.6464 24.9918 19.8469 21.4043Z" fill="white"/>
<path fill-rule="evenodd" clip-rule="evenodd" d="M2.11463 55.1079C3.8105 58.8045 6.85215 61.8884 10.8997 63.5474C15.3518 65.3722 20.1349 65.1099 24.173 63.2148C23.8388 65.4645 23.6648 67.7728 23.6648 70.1293C23.6648 85.125 30.7528 98.4577 41.7469 106.931C42.3317 107.21 42.9014 107.541 43.4499 107.926C50.9198 113.16 59.9911 116.228 69.8112 116.228C74.0688 116.228 78.1736 115.652 82.0613 114.58C88.3631 112.842 94.8739 116.565 96.6035 122.896C98.3331 129.226 94.6267 135.767 88.3249 137.504C82.4155 139.134 76.2046 140 69.8112 140C65.4911 140 61.2599 139.605 57.1526 138.848C57.24 138.952 57.3286 139.055 57.4184 139.157C24.7746 133.282 0 104.612 0 70.1293C0 66.2433 0.315773 62.4227 0.925281 58.6942C1.1356 57.4076 1.54423 56.2034 2.11463 55.1079Z" fill="#F0BD8D"/>
</svg>
