<svg width="32" height="32" viewBox="0 0 32 32" fill="none" xmlns="http://www.w3.org/2000/svg">
<path d="M13 30C10.0826 30 7.28473 28.8411 5.22183 26.7782C3.15893 24.7153 2 21.9174 2 19C2 16.0826 3.15893 13.2847 5.22183 11.2218C7.28473 9.15893 10.0826 8 13 8C13.2652 8 13.5196 8.10536 13.7071 8.29289C13.8946 8.48043 14 8.73478 14 9V18H23C23.2652 18 23.5196 18.1054 23.7071 18.2929C23.8946 18.4804 24 18.7348 24 19C24 21.9174 22.8411 24.7153 20.7782 26.7782C18.7153 28.8411 15.9174 30 13 30ZM12 10.06C10.3152 10.2474 8.71761 10.9069 7.39116 11.9625C6.0647 13.018 5.06332 14.4267 4.50232 16.0264C3.94132 17.626 3.8435 19.3516 4.22014 21.0044C4.59678 22.6572 5.43255 24.1701 6.63123 25.3688C7.82991 26.5674 9.34275 27.4032 10.9956 27.7799C12.6484 28.1565 14.374 28.0587 15.9736 27.4977C17.5733 26.9367 18.982 25.9353 20.0375 24.6088C21.0931 23.2824 21.7526 21.6848 21.94 20H14C13.4696 20 12.9609 19.7893 12.5858 19.4142C12.2107 19.0391 12 18.5304 12 18V10.06Z" fill="#9E8550"/>
<path d="M28 14H19C18.4696 14 17.9609 13.7893 17.5858 13.4142C17.2107 13.0391 17 12.5304 17 12V3C17 2.73478 17.1054 2.48043 17.2929 2.29289C17.4804 2.10536 17.7348 2 18 2C20.9174 2 23.7153 3.15893 25.7782 5.22183C27.8411 7.28473 29 10.0826 29 13C29 13.2652 28.8946 13.5196 28.7071 13.7071C28.5196 13.8946 28.2652 14 28 14ZM19 12H26.94C26.7124 9.97252 25.8028 8.08252 24.3601 6.63988C22.9175 5.19724 21.0275 4.28756 19 4.06V12Z" fill="#9E8550"/>
</svg>
