<svg width="32" height="32" viewBox="0 0 32 32" fill="none" xmlns="http://www.w3.org/2000/svg">
<path d="M21.334 21.3332C21.334 19.8598 17.1553 18.6665 12.0007 18.6665M21.334 21.3332C21.334 22.8065 17.1553 23.9998 12.0007 23.9998C6.84598 23.9998 2.66732 22.8065 2.66732 21.3332M21.334 21.3332V27.9158C21.334 29.4345 17.1553 30.6665 12.0007 30.6665C6.84598 30.6665 2.66732 29.4358 2.66732 27.9158V21.3332M21.334 21.3332C26.4327 21.3332 30.6673 20.0172 30.6673 18.6665V5.33317M12.0007 18.6665C6.84598 18.6665 2.66732 19.8598 2.66732 21.3332M12.0007 18.6665C6.10998 18.6665 1.33398 17.3505 1.33398 15.9998V9.33317M12.0007 6.6665C6.10998 6.6665 1.33398 7.85984 1.33398 9.33317M1.33398 9.33317C1.33398 10.8065 6.10998 11.9998 12.0007 11.9998C12.0007 13.3505 16.338 14.6665 21.4367 14.6665C26.534 14.6665 30.6673 13.3505 30.6673 11.9998M30.6673 5.33317C30.6673 3.85984 26.534 2.6665 21.4367 2.6665C16.338 2.6665 12.206 3.85984 12.206 5.33317M30.6673 5.33317C30.6673 6.8065 26.534 7.99984 21.4367 7.99984C16.3393 7.99984 12.206 6.8065 12.206 5.33317M12.206 5.33317V18.8878" stroke="#0B8A00" stroke-width="2"/>
</svg>
