<svg width="64" height="64" viewBox="0 0 64 64" fill="none" xmlns="http://www.w3.org/2000/svg">
<circle cx="32" cy="32" r="32" fill="white"/>
<path d="M42.5 28.8125C42.5 35.375 32.7697 40.6869 32.3553 40.9062C32.2461 40.965 32.124 40.9958 32 40.9958C31.876 40.9958 31.7539 40.965 31.6447 40.9062C31.2303 40.6869 21.5 35.375 21.5 28.8125C21.5017 27.2715 22.1147 25.794 23.2044 24.7044C24.294 23.6147 25.7715 23.0017 27.3125 23C29.2484 23 30.9434 23.8325 32 25.2397C33.0566 23.8325 34.7516 23 36.6875 23C38.2285 23.0017 39.706 23.6147 40.7956 24.7044C41.8853 25.794 42.4983 27.2715 42.5 28.8125Z" fill="#D01926"/>
</svg>
