<svg width="65" height="64" viewBox="0 0 65 64" fill="none" xmlns="http://www.w3.org/2000/svg">
<circle cx="32.334" cy="32" r="32" fill="white"/>
<g clip-path="url(#clip0_277_1164)">
<path d="M36.2547 41.9998L32.3347 39.6932L28.4147 41.9998L29.4547 37.5465L26.0013 34.5598L30.548 34.1732L32.3347 29.9998L34.1213 34.1732L38.668 34.5598L35.2147 37.5465M43.0013 18.6665H21.668V21.3332L28.148 26.1865C25.8872 27.1513 24.029 28.8673 22.8876 31.0443C21.7463 33.2212 21.3918 35.7256 21.8842 38.1338C22.3765 40.542 23.6855 42.7063 25.5898 44.2606C27.494 45.8149 29.8766 46.6639 32.3347 46.6639C34.7927 46.6639 37.1753 45.8149 39.0795 44.2606C40.9838 42.7063 42.2928 40.542 42.7851 38.1338C43.2775 35.7256 42.923 33.2212 41.7817 31.0443C40.6403 28.8673 38.7821 27.1513 36.5213 26.1865L43.0013 21.3332M40.3347 35.9998C40.3354 37.5149 39.9059 38.999 39.0961 40.2794C38.2863 41.5599 37.1296 42.5841 35.7605 43.2329C34.3915 43.8817 32.8663 44.1284 31.3625 43.9443C29.8587 43.7602 28.4381 43.1529 27.2659 42.193C26.0938 41.233 25.2183 39.96 24.7414 38.522C24.2645 37.084 24.2057 35.5401 24.5718 34.07C24.938 32.5999 25.7141 31.264 26.8098 30.2177C27.9056 29.1714 29.2759 28.4578 30.7613 28.1598C31.7994 27.9464 32.8699 27.9464 33.908 28.1598C35.7199 28.5233 37.3501 29.5028 38.5216 30.932C39.6932 32.3612 40.3338 34.1518 40.3347 35.9998ZM33.1747 25.3332H31.4947L26.1613 21.3332H38.6147L33.1747 25.3332Z" fill="#D01926"/>
</g>
<defs>
<clipPath id="clip0_277_1164">
<rect width="32" height="32" fill="white" transform="translate(16.334 16)"/>
</clipPath>
</defs>
</svg>
