<svg width="65" height="64" viewBox="0 0 65 64" fill="none" xmlns="http://www.w3.org/2000/svg">
<circle cx="32.5" cy="32" r="32" fill="white"/>
<g clip-path="url(#clip0_277_1133)">
<path d="M40.1968 34.8829C39.9901 34.8829 39.7976 34.9361 39.6244 35.0228L37.9892 32.1905L39.6104 29.3823C39.7156 29.4099 39.824 29.4293 39.9378 29.4293C40.2805 29.4289 40.609 29.2925 40.8512 29.05C41.0934 28.8076 41.2294 28.4789 41.2295 28.1362C41.2292 27.7939 41.0929 27.4658 40.8507 27.2239C40.6085 26.982 40.2801 26.8463 39.9378 26.8465C39.7273 26.8461 39.5199 26.8972 39.3338 26.9955C39.1476 27.0938 38.9884 27.2362 38.87 27.4102H35.2292L33.5392 24.4829C33.6755 24.2746 33.7483 24.0311 33.7487 23.7821C33.7485 23.4393 33.6121 23.1105 33.3696 22.8682C33.1271 22.6258 32.7982 22.4897 32.4553 22.4897C32.1126 22.4901 31.7841 22.6264 31.5419 22.8688C31.2997 23.1113 31.1636 23.4399 31.1636 23.7826C31.1646 24.0248 31.2341 24.2618 31.364 24.4661L29.6641 27.4102H25.9369C25.7188 27.0056 25.2966 26.7274 24.8051 26.7281C24.6354 26.7278 24.4673 26.7609 24.3104 26.8256C24.1536 26.8903 24.011 26.9852 23.8909 27.1051C23.7707 27.2249 23.6754 27.3673 23.6104 27.524C23.5453 27.6807 23.5118 27.8487 23.5117 28.0184C23.5118 28.3613 23.6482 28.6901 23.8907 28.9325C24.1333 29.1749 24.4622 29.3111 24.8051 29.311C25.0117 29.311 25.2042 29.2575 25.3775 29.1711L27.0128 32.0036L25.3914 34.8121C25.2848 34.7823 25.1747 34.7665 25.064 34.765C24.7215 34.765 24.393 34.9011 24.1509 35.1433C23.9087 35.3855 23.7726 35.714 23.7726 36.0565C23.7726 36.399 23.9087 36.7275 24.1509 36.9697C24.393 37.2118 24.7215 37.3479 25.064 37.3479C25.2746 37.3482 25.482 37.2969 25.6682 37.1986C25.8544 37.1003 26.0137 36.9579 26.1323 36.7839H29.7728L31.4084 39.6171C31.3081 39.8017 31.2547 40.0082 31.2532 40.2183C31.2532 40.3881 31.2867 40.5562 31.3517 40.7131C31.4167 40.87 31.512 41.0125 31.6321 41.1325C31.7522 41.2526 31.8948 41.3478 32.0517 41.4127C32.2086 41.4776 32.3767 41.511 32.5465 41.5109C32.8892 41.5105 33.2177 41.3741 33.4599 41.1316C33.7021 40.8892 33.8381 40.5605 33.8382 40.2178C33.8365 40.0144 33.7863 39.8143 33.6918 39.6341L35.3375 36.7839H39.0652C39.2833 37.1883 39.7055 37.4665 40.1972 37.4665C40.3669 37.4667 40.535 37.4334 40.6918 37.3687C40.8486 37.3039 40.9912 37.2089 41.1113 37.089C41.2314 36.9691 41.3267 36.8268 41.3918 36.6701C41.4569 36.5134 41.4904 36.3454 41.4906 36.1757C41.4902 35.8328 41.3538 35.504 41.1112 35.2616C40.8686 35.0192 40.5397 34.883 40.1968 34.8829Z" fill="#9E8550"/>
</g>
<defs>
<clipPath id="clip0_277_1133">
<rect width="24" height="24" fill="white" transform="translate(20.5 20)"/>
</clipPath>
</defs>
</svg>
