<svg width="64" height="64" viewBox="0 0 64 64" fill="none" xmlns="http://www.w3.org/2000/svg">
<circle cx="32" cy="32" r="32" fill="white"/>
<g clip-path="url(#clip0_277_1140)">
<g clip-path="url(#clip1_277_1140)">
<path d="M27.08 25H43.08V29H42.08V30H36.08C35.8148 30 35.5604 30.1054 35.3729 30.2929C35.1854 30.4804 35.08 30.7348 35.08 31V32C35.08 32.5304 34.8693 33.0391 34.4942 33.4142C34.1191 33.7893 33.6104 34 33.08 34H29.7C29.32 34 28.97 34.22 28.8 34.56L26.35 39.45C26.18 39.79 25.84 40 25.46 40H22.08C22.08 40 19.08 40 23.08 34C23.08 34 26.08 30 22.08 30V25H23.08L23.58 24H26.58L27.08 25ZM34.08 32V31C34.08 30.7348 33.9746 30.4804 33.7871 30.2929C33.5996 30.1054 33.3452 30 33.08 30H32.08C32.08 30 31.08 31 32.08 32C31.5496 32 31.0409 31.7893 30.6658 31.4142C30.2907 31.0391 30.08 30.5304 30.08 30C29.8148 30 29.5604 30.1054 29.3729 30.2929C29.1854 30.4804 29.08 30.7348 29.08 31V32C29.08 32.2652 29.1854 32.5196 29.3729 32.7071C29.5604 32.8946 29.8148 33 30.08 33H33.08C33.3452 33 33.5996 32.8946 33.7871 32.7071C33.9746 32.5196 34.08 32.2652 34.08 32Z" fill="black"/>
</g>
</g>
<defs>
<clipPath id="clip0_277_1140">
<rect width="24" height="24" fill="white" transform="translate(20 20)"/>
</clipPath>
<clipPath id="clip1_277_1140">
<rect width="24" height="24" fill="white" transform="translate(20 20)"/>
</clipPath>
</defs>
</svg>
