<svg width="135" height="40" viewBox="0 0 135 40" fill="none" xmlns="http://www.w3.org/2000/svg">
<path d="M67.3786 20.0571C67.3651 19.7871 67.4326 19.7196 67.6891 19.8276C67.7701 19.8546 67.8106 19.8411 67.8646 19.8141C67.9861 19.7601 68.0941 19.6926 68.2291 19.6926C68.3371 19.6926 68.4451 19.6656 68.5396 19.7331C68.6341 19.8006 68.7151 19.7601 68.8096 19.7196C68.9176 19.6656 69.0256 19.6251 69.1471 19.5981C69.5926 19.4901 69.8896 19.6791 69.9571 20.1381C69.9841 20.3001 69.9976 20.4621 70.0111 20.6241C70.0381 20.9076 70.0786 21.2046 70.1056 21.4881C70.1191 21.6231 70.0921 21.6501 69.9436 21.6636C69.8491 21.6771 69.7816 21.6501 69.7681 21.5286C69.7276 21.1776 69.6871 20.8266 69.6466 20.4621C69.6331 20.3406 69.6196 20.2191 69.5926 20.1111C69.5386 19.9356 69.4441 19.8681 69.2551 19.8816C69.1876 19.8816 69.1066 19.9086 69.0391 19.9356C68.8366 20.0031 68.8366 20.0031 68.8636 20.2326C68.9176 20.6916 68.9581 21.1506 69.0121 21.6096C69.0256 21.7176 68.9851 21.7716 68.8771 21.7716C68.7151 21.7851 68.6881 21.7716 68.6746 21.6501C68.6341 21.2721 68.5936 20.8941 68.5531 20.5296C68.5396 20.3946 68.5261 20.2731 68.4856 20.1516C68.4586 20.0706 68.4046 20.0301 68.3236 20.0166C68.1346 19.9896 67.9591 20.0706 67.8106 20.1786C67.7566 20.2191 67.7701 20.3001 67.7836 20.3676C67.8106 20.6916 67.8511 21.0156 67.8916 21.3396C67.9051 21.4881 67.9186 21.6366 67.9321 21.7851C67.9456 21.9066 67.8376 21.9066 67.7566 21.9201C67.6756 21.9201 67.6081 21.9336 67.5946 21.8121C67.5541 21.4611 67.5136 21.1101 67.4731 20.7456C67.4191 20.5161 67.4056 20.2866 67.3786 20.0571Z" fill="white"/>
<path d="M82.282 18.6533C82.2415 19.1393 82.1875 19.6253 82.1335 20.0978C82.1065 20.3408 81.904 20.4623 81.6745 20.3948C81.58 20.3678 81.5395 20.2868 81.5125 20.2058C81.445 20.0303 81.3775 19.8413 81.31 19.6658C81.2425 19.4768 81.175 19.2878 81.094 19.0853C81.0805 19.0448 81.067 18.9908 81.013 18.9908C80.9455 18.9908 80.9725 19.0583 80.9725 19.0853C80.905 19.4633 80.8645 19.8548 80.797 20.2328C80.7565 20.4893 80.6755 20.5298 80.4325 20.5433C80.311 20.5433 80.23 20.4893 80.1895 20.3813C80.0005 19.8143 79.8115 19.2338 79.6225 18.6668C79.5955 18.5993 79.582 18.5183 79.69 18.4778C79.825 18.4373 79.9195 18.4643 79.96 18.5723C80.0815 18.9638 80.1895 19.3553 80.3245 19.7468C80.365 19.8548 80.338 20.0033 80.4865 20.0573C80.581 19.9628 80.5675 19.8413 80.581 19.7333C80.635 19.4228 80.6755 19.1123 80.716 18.8018C80.743 18.6128 80.743 18.6128 80.932 18.5723C81.1885 18.5318 81.2155 18.5318 81.31 18.8018C81.4585 19.1798 81.5935 19.5713 81.742 19.9493C81.7555 19.9763 81.769 20.0168 81.8095 20.0168C81.85 20.0168 81.85 19.9763 81.85 19.9493C81.8905 19.5038 81.9175 19.0448 81.958 18.5993C81.958 18.5318 81.958 18.4643 81.9715 18.4103C81.985 18.2753 82.012 18.2483 82.147 18.2348C82.2955 18.2213 82.336 18.2618 82.3225 18.4238C82.309 18.4778 82.2955 18.5723 82.282 18.6533Z" fill="white"/>
<path d="M77.4229 20.597C77.4229 20.6645 77.4364 20.7185 77.4364 20.759C77.4364 20.786 77.4229 20.8265 77.4094 20.84C77.3284 20.8805 77.2474 20.8805 77.1664 20.8535C77.0989 20.84 77.1124 20.7725 77.1124 20.7185C77.0719 20.354 77.0179 19.9895 76.9909 19.625C76.9504 19.1255 76.7344 19.0175 76.2754 19.1525C76.2214 19.166 76.1674 19.193 76.1269 19.2065C76.0459 19.2335 76.0189 19.301 76.0324 19.382C76.0594 19.6115 76.0864 19.8275 76.1134 20.057C76.1404 20.3135 76.1809 20.57 76.2079 20.8265C76.2214 20.948 76.1944 20.975 76.0729 20.9885C75.9244 21.002 75.8839 20.9885 75.8569 20.867C75.8029 20.462 75.7624 20.057 75.7219 19.6385C75.6814 19.247 75.6409 18.842 75.5869 18.4505C75.5869 18.41 75.5734 18.3695 75.5734 18.3155C75.5599 18.14 75.5869 18.1265 75.7354 18.113C75.8434 18.0995 75.8974 18.1265 75.9109 18.248C75.9244 18.437 75.9514 18.6125 75.9649 18.8015C75.9784 18.9095 76.0054 18.9365 76.1134 18.896C76.2214 18.869 76.3429 18.815 76.4509 18.788C76.9234 18.6935 77.2339 18.9095 77.3149 19.382C77.3284 19.5035 77.3554 19.6115 77.3689 19.733C77.3689 20.0435 77.3959 20.3405 77.4229 20.597Z" fill="white"/>
<path d="M72.0774 21.2585C72.0639 21.11 72.0504 20.9615 72.0234 20.813C71.9829 20.5025 71.9559 20.192 71.9019 19.8815C71.8479 19.571 71.6319 19.3955 71.3214 19.382C71.0649 19.3685 70.8084 19.4225 70.5654 19.49C70.4709 19.517 70.4439 19.5845 70.4709 19.6925C70.4979 19.787 70.5654 19.7735 70.6194 19.76C70.7949 19.733 70.9569 19.706 71.0514 19.6925C71.4564 19.6655 71.5644 19.76 71.5914 20.0705C71.6049 20.1515 71.5779 20.2055 71.4834 20.219C71.3214 20.2325 71.1594 20.2595 71.0109 20.2865C70.5789 20.3945 70.4169 20.6375 70.4979 21.0695C70.5519 21.3935 70.7814 21.5825 71.1189 21.5555C71.2134 21.5555 71.3079 21.5285 71.4024 21.5015C71.4834 21.4745 71.5644 21.434 71.6319 21.3935C71.7534 21.3125 71.7939 21.461 71.8884 21.461C72.0369 21.4475 72.0909 21.407 72.0774 21.2585ZM71.6589 21.083C71.5914 21.1775 71.3079 21.272 71.1594 21.272C70.9704 21.272 70.8894 21.218 70.8354 21.029C70.7814 20.813 70.8354 20.6645 70.9974 20.5835C71.1729 20.5025 71.3754 20.4755 71.5644 20.4755C71.6184 20.4755 71.6454 20.5025 71.6454 20.5565C71.6454 20.6105 71.6589 20.6645 71.6589 20.7185C71.6589 20.8265 71.7534 20.9615 71.6589 21.083Z" fill="white"/>
<path d="M79.5013 19.8007C79.5013 19.5982 79.4878 19.3957 79.4338 19.1932C79.3663 18.9232 79.2178 18.7207 78.9478 18.6262C78.3403 18.3967 77.7598 18.7882 77.7598 19.4497C77.7598 19.6252 77.7868 19.8142 77.8138 19.9897C77.8948 20.5162 78.2728 20.8942 78.9748 20.6917C79.2988 20.5972 79.4608 20.3542 79.5013 20.0302C79.5148 19.9492 79.5013 19.8682 79.5013 19.8007ZM79.1638 19.9762C79.1368 20.2597 78.9748 20.4082 78.7183 20.4352C78.4348 20.4622 78.2863 20.3542 78.1918 20.0707C78.1378 19.9087 78.1378 19.7467 78.1243 19.5577C78.1243 19.5037 78.1108 19.4227 78.1243 19.3282C78.1513 19.0447 78.2998 18.9097 78.5833 18.8827C78.8128 18.8557 79.0018 18.9772 79.0828 19.2067C79.1503 19.4497 79.1773 19.7062 79.1638 19.9762Z" fill="white"/>
<path d="M84.5372 18.1537C84.5372 18.1402 84.5372 18.1132 84.5372 18.0727C84.5237 17.9782 84.5777 17.9377 84.6722 17.9377C84.8342 17.9242 84.8612 17.9377 84.8747 18.0997C84.9152 18.4372 84.9557 18.7882 84.9962 19.1257C84.9962 19.1662 84.9962 19.2067 85.0097 19.2607C85.0637 19.6927 85.2797 19.8142 85.6847 19.6522C85.7387 19.6252 85.8062 19.5982 85.8602 19.5712C85.9547 19.5307 85.9817 19.4497 85.9682 19.3552C85.9412 19.1122 85.9142 18.8692 85.8872 18.6127C85.8602 18.3967 85.8332 18.1807 85.8197 17.9647C85.8062 17.8297 85.8332 17.8027 85.9817 17.7892C86.1167 17.7757 86.1572 17.8027 86.1707 17.9377C86.2247 18.3697 86.2652 18.8152 86.3057 19.2607C86.3192 19.4092 86.3462 19.5577 86.3597 19.7062C86.3732 19.8547 86.3462 19.8817 86.2112 19.8817C86.1572 19.8817 86.1032 19.9087 86.0627 19.8682C85.9952 19.7872 85.9412 19.8277 85.8602 19.8682C85.7252 19.9357 85.5902 19.9897 85.4282 20.0032C85.0502 20.0437 84.8072 19.8817 84.7127 19.5037C84.6722 19.3417 84.6587 19.1662 84.6317 18.9907C84.6047 18.7477 84.5777 18.5047 84.5507 18.2482C84.5507 18.2347 84.5507 18.2077 84.5372 18.1537Z" fill="white"/>
<path d="M74.3838 21.1914C74.2893 21.1914 74.1948 21.1914 74.0868 21.1914C74.0058 21.1914 73.9788 21.1374 73.9788 21.0564C73.9653 20.9619 73.9923 20.9079 74.1003 20.9079C74.2893 20.9079 74.4648 20.9079 74.6538 20.8809C74.7213 20.8674 74.7888 20.8674 74.8428 20.8404C75.0318 20.7729 75.0723 20.5569 74.9103 20.4219C74.8428 20.3544 74.7483 20.3139 74.6538 20.2734C74.4918 20.1924 74.3163 20.1249 74.1543 20.0439C73.9923 19.9494 73.8573 19.8279 73.8168 19.6254C73.7763 19.4094 73.8573 19.1934 74.0598 19.1124C74.3703 18.9774 74.7078 18.9504 75.0453 18.9909C75.1398 19.0044 75.1533 19.0854 75.1533 19.1664C75.1533 19.2474 75.0858 19.2744 75.0183 19.2744C74.8698 19.2879 74.7213 19.2879 74.5728 19.3014C74.4918 19.3149 74.3973 19.3149 74.3163 19.3419C74.1543 19.3959 74.1138 19.5849 74.2623 19.6929C74.3298 19.7469 74.4108 19.7739 74.4918 19.8144C74.6808 19.9089 74.8833 20.0034 75.0723 20.0979C75.2478 20.1924 75.3423 20.3409 75.3558 20.5434C75.3828 20.7999 75.2478 20.9889 74.9913 21.0969C74.7888 21.1914 74.5863 21.1914 74.3838 21.1914Z" fill="white"/>
<path d="M73.2509 19.1795C73.2914 19.1795 73.3319 19.1795 73.3859 19.166C73.4804 19.1525 73.494 19.22 73.494 19.2875C73.5075 19.355 73.5075 19.4225 73.4265 19.4495C73.413 19.4495 73.3995 19.4495 73.3995 19.4495C73.2915 19.4765 73.1159 19.436 73.0754 19.544C73.0349 19.6385 73.089 19.7735 73.089 19.895C73.1295 20.3 73.1835 20.705 73.224 21.1235C73.251 21.326 73.2239 21.326 73.0079 21.3395C72.9269 21.3395 72.9 21.299 72.8865 21.218C72.846 20.867 72.8055 20.516 72.765 20.1515C72.7515 20.057 72.7514 19.9625 72.7379 19.868C72.7109 19.76 72.7514 19.625 72.6704 19.571C72.6029 19.5305 72.4815 19.544 72.387 19.544C72.2925 19.544 72.252 19.5035 72.252 19.409C72.252 19.328 72.3059 19.301 72.3734 19.2875C72.4679 19.2605 72.5894 19.301 72.6434 19.22C72.6974 19.139 72.6434 19.031 72.6434 18.9365C72.6434 18.5315 72.954 18.2885 73.359 18.3965C73.4265 18.41 73.44 18.464 73.44 18.518C73.44 18.572 73.4265 18.626 73.359 18.6395C73.2915 18.653 73.224 18.653 73.17 18.6665C73.035 18.6935 72.9945 18.761 72.9945 18.896C72.9945 18.9365 73.0079 18.977 73.0079 19.0175C73.0349 19.193 73.0349 19.193 73.2104 19.1795C73.1969 19.1795 73.2239 19.1795 73.2509 19.1795Z" fill="white"/>
<path d="M83.2402 18.2749C83.2402 18.0859 83.3347 18.0184 83.5237 18.0994C83.6047 18.1399 83.6452 18.1534 83.7127 18.0994C83.8072 18.0319 83.9287 17.9914 84.0367 17.9779C84.1177 17.9644 84.1582 17.9914 84.1717 18.0724C84.1717 18.1399 84.2122 18.2209 84.1042 18.2614C83.9962 18.2884 83.9017 18.3289 83.7937 18.3559C83.6587 18.4099 83.5912 18.4909 83.6182 18.6529C83.6722 18.9904 83.6992 19.3414 83.7262 19.6789C83.7397 19.7734 83.7532 19.8679 83.7532 19.9624C83.7667 20.1244 83.7397 20.1514 83.5912 20.1649C83.4832 20.1784 83.4427 20.1514 83.4292 20.0299C83.3887 19.7464 83.3617 19.4764 83.3347 19.1929C83.2942 18.8959 83.2672 18.5854 83.2402 18.2749Z" fill="white"/>
<path d="M82.5792 19.9493C82.5657 19.7873 82.6871 19.7063 82.8356 19.7603C82.8761 19.7738 82.9031 19.8143 82.9031 19.8548C82.9166 19.9358 82.9166 20.0168 82.9301 20.1113C82.9436 20.2193 82.8897 20.2598 82.7817 20.2733C82.6332 20.2868 82.6061 20.2733 82.5926 20.1383C82.5926 20.0843 82.5792 20.0168 82.5792 19.9493Z" fill="white"/>
<path d="M66.7294 16.2769C66.7429 16.6684 66.6889 17.0329 66.6619 17.3974C66.6484 17.5189 66.5944 17.5864 66.4864 17.6539C66.1624 17.8429 65.8114 17.9779 65.4334 18.0454C65.2309 18.0859 65.2174 18.0859 65.2444 18.2884C65.2849 18.7744 65.3389 19.2604 65.3929 19.7329C65.4739 20.4754 65.5414 21.2179 65.6224 21.9604C65.7034 22.7299 65.7844 23.5129 65.8654 24.2824C65.9464 25.0249 66.0139 25.7674 66.0814 26.5099C66.1489 27.1714 66.2164 27.8464 66.2839 28.5079C66.2839 28.5484 66.2839 28.5889 66.2974 28.6429C66.3109 28.7374 66.2839 28.7779 66.1759 28.7914C65.8249 28.8319 65.4739 28.8724 65.1094 28.8994C64.5424 28.9534 63.9754 29.0074 63.3949 29.0614C63.2194 29.0749 63.2194 29.0749 63.2059 28.8994C63.1384 28.3459 63.0844 27.7789 63.0304 27.2254C62.9494 26.4424 62.8684 25.6594 62.7874 24.8764C62.7199 24.1744 62.6389 23.4589 62.5714 22.7434C62.4904 21.9739 62.4094 21.1909 62.3284 20.4214C62.2744 19.8814 62.2204 19.3414 62.1664 18.8149C62.1394 18.5989 62.1529 18.3829 62.0179 18.1939C61.9639 18.1264 61.9774 18.0319 61.9774 17.9374C61.9639 17.3164 61.8694 16.7089 61.8829 16.0879C61.8829 16.0204 61.8694 15.9529 61.8559 15.8989C61.8289 15.7639 61.8424 15.5884 61.7344 15.5074C61.5994 15.3994 61.3969 15.4939 61.2349 15.4804C61.1944 15.4804 61.1539 15.5074 61.1539 15.5614C61.1539 15.6559 61.1539 15.7504 61.1539 15.8584C61.2214 16.5604 61.3024 17.2489 61.3699 17.9509C61.3699 18.0049 61.3834 18.0589 61.3834 18.1129C61.3969 18.3694 61.3969 18.3559 61.1539 18.4099C61.0189 18.4369 60.8839 18.4909 60.7489 18.5179C60.3574 18.5854 60.2764 18.5719 60.2359 18.1264C60.1954 17.5999 60.1414 17.0869 60.1009 16.5604C60.0739 16.1689 59.9929 15.7639 60.0469 15.3724C60.0874 15.0889 59.9929 14.8189 59.9524 14.5354C59.8714 14.0494 59.8039 13.5499 59.7634 13.0639C59.7499 12.9424 59.7499 12.8209 59.8039 12.7129C59.8714 12.5509 59.9659 12.4159 60.1819 12.4294C60.3439 12.4429 60.5059 12.3889 60.6679 12.3889C60.8299 12.3754 60.8434 12.3889 60.8839 12.5644C60.9244 12.7399 60.9514 12.9289 60.9649 13.1044C60.9784 13.4554 61.0054 13.8199 61.0189 14.1709C61.0189 14.2519 61.0189 14.3464 61.0459 14.4274C61.0729 14.5219 61.0324 14.6704 61.1539 14.7109C61.3159 14.7649 61.4914 14.7784 61.6534 14.6704C61.7074 14.6299 61.7344 14.5759 61.7344 14.5084C61.7209 14.4409 61.7209 14.3734 61.7074 14.3194C61.6534 13.7659 61.5859 13.2259 61.5319 12.6724C61.5319 12.6319 61.5319 12.5914 61.5319 12.5374C61.5319 12.2809 61.5724 12.2404 61.8289 12.2134C62.0449 12.1864 62.2609 12.2134 62.4634 12.1324C62.5579 12.0919 62.6794 12.1999 62.6929 12.3349C62.7064 12.4294 62.7064 12.5239 62.7064 12.6319C62.7199 13.2394 62.7874 13.8334 62.8954 14.4274C62.9224 14.5894 62.9494 14.7379 62.8954 14.8999C62.8684 14.9809 62.8684 15.0754 62.8819 15.1564C62.9764 16.0609 63.0709 16.9654 63.1654 17.8564C63.1789 18.0319 63.1924 18.0319 63.3679 18.0184C63.6649 17.9914 63.9484 17.9644 64.2319 17.9239C64.3399 17.9104 64.4614 17.9374 64.5559 17.8564C64.4614 17.8024 64.3669 17.7484 64.2859 17.6944C64.1509 17.5999 64.0294 17.4919 63.9484 17.3569C63.8944 17.2759 63.9079 17.1949 64.0024 17.1679C64.2589 17.1004 64.4074 16.8979 64.5964 16.7359C64.6369 16.6954 64.6774 16.6684 64.7314 16.6414C64.9069 16.5469 64.9744 16.5739 65.0419 16.7629C65.0824 16.9114 65.1229 17.0599 65.1769 17.1949C65.2309 17.3299 65.2849 17.3569 65.4334 17.3299C65.6359 17.2894 65.7709 17.1409 65.7439 16.9519C65.6899 16.4794 65.7439 16.0069 65.7169 15.5479C65.6899 14.8459 65.5954 14.1439 65.3254 13.4959C65.2714 13.3744 65.2309 13.2529 65.1229 13.1719C65.0014 13.0639 64.8799 12.9964 64.7179 13.0504C64.5694 13.1044 64.4209 13.3204 64.4209 13.4824C64.4209 13.5499 64.4344 13.6174 64.4479 13.6714C64.5829 14.4949 64.7179 15.3049 64.8529 16.1284C64.8799 16.3039 64.8799 16.3039 64.7179 16.3984C64.6099 16.4524 64.5424 16.5469 64.4479 16.6279C64.3669 16.7089 64.2994 16.7899 64.2049 16.8304C63.9889 16.9384 63.9214 16.9114 63.8674 16.6819C63.7054 16.0609 63.5164 15.4399 63.4354 14.7919C63.3679 14.3059 63.3409 13.8199 63.4759 13.3474C63.5029 13.2259 63.5569 13.1044 63.6109 12.9829C63.8269 12.4699 64.2589 12.2674 64.7719 12.1999C64.7989 12.1999 64.8124 12.2134 64.8394 12.1999C65.2984 12.0784 65.6224 12.2944 65.9059 12.6184C66.1489 12.8884 66.2974 13.2124 66.3919 13.5634C66.5269 14.0359 66.5809 14.5219 66.6484 14.9944C66.6754 15.1969 66.7159 15.3994 66.7564 15.5884C66.7969 15.7774 66.7699 15.9799 66.7834 16.1689C66.7294 16.1959 66.7294 16.2499 66.7294 16.2769Z" fill="url(#paint0_linear_357_1744)"/>
<path d="M93.8527 12.7262C93.9067 12.9017 93.9471 13.0772 94.0011 13.2527C94.0146 13.2797 94.0147 13.3202 93.9877 13.3337C93.9742 13.3337 93.9337 13.3067 93.9202 13.2932C93.8797 13.2662 93.8392 13.2527 93.8257 13.3202C93.8122 13.4417 93.8257 13.5632 93.8257 13.6712C93.8257 13.7792 93.8122 13.8872 93.8122 13.9952C93.8122 14.0357 93.8121 14.0762 93.7986 14.1032C93.7581 14.0762 93.7716 14.0357 93.7716 14.0087C93.7446 13.8467 93.7177 13.6847 93.6772 13.5362C93.6097 13.2527 93.5016 12.9827 93.3532 12.7262C93.0562 12.2267 92.7456 11.7272 92.4486 11.2277C92.3406 11.0387 92.3271 11.0387 92.1111 11.0927C91.7466 11.1602 91.3686 11.2412 91.0041 11.3087C90.8556 11.3357 90.8286 11.3222 90.8016 11.1872C90.7476 10.9172 90.7476 10.9172 90.4911 10.9442C89.8161 11.0117 89.1411 11.0792 88.4661 11.1602C87.7641 11.2412 87.0756 11.3222 86.3736 11.3897C85.7121 11.4572 85.0372 11.5247 84.3757 11.5922C84.2677 11.6057 84.2137 11.6327 84.2272 11.7407C84.2407 12.0242 84.2542 12.3077 84.2947 12.5777C84.3082 12.6587 84.3487 12.6857 84.4297 12.6722C84.6187 12.6452 84.8077 12.6182 85.0102 12.5912C85.1722 12.5642 85.2262 12.5912 85.2532 12.7532C85.2937 12.9962 85.3206 13.2392 85.3611 13.4957C85.3746 13.6307 85.3611 13.6577 85.2261 13.6442C84.9966 13.6442 84.7671 13.7387 84.5241 13.6577C84.4566 13.6307 84.4297 13.6847 84.4297 13.7522C84.4567 14.0897 84.4971 14.4407 84.5241 14.7782C84.5376 14.8862 84.5917 14.9402 84.7132 14.9537C84.9967 14.9807 85.2802 14.9672 85.5502 14.9267C85.5907 14.9267 85.6311 14.9132 85.6716 14.8997C85.9821 14.8592 85.9822 14.8592 85.9957 15.1832C86.0092 15.3857 86.0227 15.5882 86.0497 15.7907C86.0632 15.8987 86.0091 15.9527 85.9011 15.9527C85.6581 15.9662 85.4287 15.9932 85.1857 16.0067C84.7807 16.0337 84.3757 16.1417 83.9572 16.1147C83.8627 16.1147 83.7951 16.1687 83.7141 16.1822C83.5791 16.2092 83.4847 16.1417 83.4577 16.0067C83.3767 15.6692 83.3766 15.3182 83.3766 14.9807C83.3766 14.5622 83.3902 14.1302 83.2957 13.7252C83.2282 13.4282 83.1742 13.1312 83.1472 12.8342C83.0932 11.9972 83.0391 11.1602 83.0391 10.3097C83.0391 10.2827 83.0391 10.2692 83.0391 10.2422C83.0256 10.1342 83.0797 10.0937 83.1877 10.0937C83.5927 10.1072 84.0111 10.0667 84.4161 10.0127C85.1451 9.93171 85.8742 9.85072 86.6032 9.76972C87.3052 9.68872 88.0207 9.62122 88.7227 9.55372C89.2762 9.49972 89.8431 9.43222 90.3966 9.37822C90.5046 9.36472 90.5451 9.32422 90.5586 9.21622C90.6261 8.77072 90.6937 8.32522 90.8152 7.87972C90.8692 7.69072 90.9637 7.58272 91.1527 7.52872C91.4497 7.46122 91.4767 7.46122 91.6522 7.73122C91.7332 7.86622 91.8142 7.98771 91.8952 8.12271C91.9087 8.14971 91.9357 8.16321 91.9627 8.19021C91.9762 8.16321 92.0166 8.14971 92.0166 8.12271C92.0571 8.00121 92.0976 7.87972 92.1516 7.75822C92.1786 7.86622 92.1922 7.97422 92.2327 8.08222C92.2732 8.20372 92.3811 8.24422 92.4891 8.17672C92.6106 8.10922 92.6916 7.98772 92.7591 7.86622C92.9481 7.54222 93.1101 7.20472 93.2586 6.85372C93.2991 6.74572 93.3397 6.63772 93.4207 6.54322C93.4342 6.52972 93.4342 6.50272 93.4477 6.48922C93.4612 6.44872 93.4476 6.44872 93.4207 6.47572C93.4072 6.48922 93.4071 6.51622 93.3936 6.52972C93.3666 6.70522 93.3396 6.89422 93.3261 7.06972C93.3126 7.13722 93.3126 7.20472 93.3261 7.25872C93.3396 7.33972 93.4072 7.36671 93.4747 7.31271C93.6502 7.17771 93.7852 7.01572 93.8527 6.79972C93.9337 6.57022 93.9877 6.32722 94.0552 6.08422C94.0822 5.98972 94.0957 5.89522 94.1227 5.80072C94.1362 5.77372 94.1496 5.73322 94.1766 5.74672C94.3656 5.82772 94.3791 5.65221 94.4466 5.55771C94.5006 5.46321 94.5412 5.36872 94.5952 5.27422C94.6087 5.26072 94.6087 5.23371 94.6222 5.22021C94.6222 5.22021 94.6357 5.22022 94.6357 5.23372C94.6222 5.24722 94.6086 5.27421 94.6086 5.28771C94.5951 5.32821 94.5682 5.36872 94.5547 5.40922C94.3927 5.86822 94.2442 6.32721 94.0822 6.77271C94.0552 6.84021 94.0416 6.92122 94.0282 6.98872C94.0282 7.00222 94.0417 7.02921 94.0552 7.04271C94.0687 7.05621 94.1091 7.05621 94.1091 7.04271C94.2171 6.93471 94.3117 6.82672 94.4197 6.71872C94.4467 6.69172 94.4602 6.66472 94.4872 6.65122C94.4737 6.67822 94.4601 6.71872 94.4466 6.74572C94.3656 6.89422 94.2712 7.04272 94.1902 7.19122C94.1497 7.27222 94.0416 7.36672 94.1361 7.43422C94.2036 7.48822 94.2846 7.38022 94.3386 7.32622C94.5006 7.17772 94.6761 7.05622 94.8516 6.93472C94.8651 6.92122 94.8921 6.92122 94.9057 6.92122C94.9327 7.01572 94.7571 7.08321 94.8516 7.17771C94.9056 7.23171 95.0137 7.17772 95.0947 7.16422C95.1622 7.15072 95.2431 7.12372 95.3106 7.13722C95.2837 7.20472 95.2297 7.23172 95.1757 7.27222C94.7302 7.55572 94.3522 7.89322 94.0147 8.29822C93.8257 8.52772 93.6501 8.74372 93.4611 8.97322C93.4476 9.00022 93.4476 9.02722 93.4341 9.05422C93.4611 9.05422 93.5016 9.06772 93.5286 9.05422C94.4196 8.78422 95.3512 8.60872 96.2557 8.37922C95.9857 8.50072 95.7157 8.60871 95.4457 8.73021C95.3512 8.77071 95.2701 8.81121 95.1891 8.86521C95.1621 8.87871 95.1352 8.90572 95.1622 8.94622C95.1757 8.97322 95.2162 8.98671 95.2431 9.00021C95.3242 9.01371 95.4187 9.01372 95.4997 9.01372C96.0127 9.01372 96.5121 8.94622 97.0116 8.91922C97.6056 8.87872 98.1862 8.77072 98.7802 8.75722C98.8072 8.75722 98.8207 8.75722 98.8477 8.74372C98.8882 8.73022 98.8746 8.71672 98.8341 8.71672C98.8071 8.71672 98.7937 8.73021 98.7802 8.73021C98.7397 8.75721 98.6857 8.78422 98.6452 8.81122C98.5642 8.83822 98.4021 8.83821 98.4291 8.93271C98.4426 9.01371 98.6046 8.95972 98.6991 8.94622C99.1986 8.89222 99.6846 8.83822 100.184 8.78422C100.211 8.78422 100.225 8.77072 100.252 8.77072C100.319 8.77072 100.4 8.74372 100.468 8.78422C100.4 8.79772 100.319 8.81122 100.252 8.82472C99.5496 8.97322 98.8342 9.10822 98.1322 9.25672C97.8757 9.31072 97.6326 9.36472 97.3761 9.41872C97.3356 9.43222 97.2952 9.45921 97.2547 9.47271C97.2277 9.48621 97.2277 9.49972 97.2277 9.52672C97.2277 9.55372 97.2411 9.56722 97.2682 9.56722C97.3491 9.58072 97.4437 9.59422 97.5247 9.59422C97.9837 9.56722 98.4562 9.54022 98.9152 9.52672C98.9422 9.52672 98.9827 9.52672 99.0097 9.51322C99.0502 9.49972 98.9962 9.45922 99.0231 9.49972C99.0366 9.45922 99.0501 9.54022 99.0231 9.49972L99.0097 9.51322C98.9692 9.51322 98.9152 9.51322 98.8747 9.51322C98.1322 9.71572 97.3761 9.83722 96.6336 9.99922C95.9046 10.1477 95.1756 10.2827 94.4466 10.4177C94.3386 10.4312 94.2306 10.4717 94.1361 10.4987C94.0146 10.5527 94.0147 10.5797 94.1227 10.6877C94.1362 10.7012 94.1631 10.7012 94.1766 10.7147C94.1496 10.7147 94.1361 10.7282 94.1091 10.7282C94.0146 10.7282 93.9202 10.7282 93.8122 10.7417C93.6907 10.7552 93.6502 10.8362 93.6772 10.9442C93.7042 11.0522 93.7716 11.1332 93.8391 11.2142C94.2441 11.6462 94.6356 12.0917 95.0811 12.4832C95.1891 12.5777 95.2971 12.6587 95.3916 12.8072C95.2836 12.7532 95.2026 12.7127 95.1216 12.6722C95.0676 12.6452 95.0136 12.6047 94.9461 12.6722C94.8921 12.7532 94.9462 12.7802 95.0002 12.8207C95.1217 12.9152 95.2432 13.0097 95.3647 13.1042C95.4457 13.1717 95.5536 13.2122 95.5536 13.3472C95.5536 13.4282 95.6346 13.4417 95.6886 13.4687C95.8641 13.5632 96.0261 13.6577 96.2016 13.7387C96.2151 13.7522 96.2421 13.7522 96.2691 13.7522C96.2691 13.7522 96.2692 13.7387 96.2827 13.7387C96.2692 13.7252 96.2421 13.7252 96.2286 13.7117C95.9316 13.6712 95.6752 13.5362 95.4052 13.4417C94.9462 13.2662 94.5816 12.9692 94.2441 12.6452C94.2036 12.6047 94.1632 12.5642 94.1227 12.5372C94.0957 12.5102 94.0687 12.4562 94.0282 12.4967C94.0147 12.5102 94.0282 12.5777 94.0282 12.6182C94.0416 12.6722 94.0417 12.6857 93.9877 12.6452C93.9742 12.6452 93.9742 12.6317 93.9607 12.6317C93.9472 12.6317 93.9336 12.6182 93.9336 12.6182C93.9201 12.5777 93.8931 12.5372 93.8391 12.5507C93.7851 12.5777 93.8122 12.6182 93.8257 12.6587C93.8257 12.6857 93.8392 12.6992 93.8527 12.7262Z" fill="url(#paint1_linear_357_1744)"/>
<path d="M69.1999 11.7136C69.3079 11.7136 69.4159 11.7271 69.5239 11.7136C69.6319 11.7001 69.6724 11.7541 69.6859 11.8486C69.7399 12.3076 69.8344 12.7666 69.9559 13.2121C70.0504 13.5496 70.1584 13.8736 70.2664 14.1976C70.2934 14.2651 70.3069 14.3866 70.3744 14.3866C70.4689 14.3866 70.4824 14.2651 70.5094 14.1841C70.5499 14.0896 70.5769 13.9816 70.6039 13.8736C70.7929 13.0771 70.9414 12.2671 70.9954 11.4436C70.9954 11.4031 70.9954 11.3626 71.0089 11.3086C71.0089 11.2546 71.0359 11.2006 71.1034 11.2006C71.2654 11.1871 71.4274 11.1601 71.5894 11.1736C71.8054 11.1736 71.8459 11.2411 71.8324 11.4571C71.8054 11.8891 71.7649 12.3211 71.7379 12.7531C71.7109 13.1986 71.6299 13.6306 71.4814 14.0491C71.4544 14.1166 71.4544 14.1976 71.4544 14.2651C71.4139 14.8186 71.3869 15.3856 71.3464 15.9391C71.3194 16.2901 71.3464 16.6276 71.3464 16.9786C71.3464 17.1946 71.3464 17.2081 71.1169 17.2486C70.8739 17.2891 70.6174 17.2891 70.3744 17.3161C70.3069 17.3161 70.2799 17.2756 70.2664 17.2216C70.2124 17.0326 70.1449 16.8571 70.0909 16.6681C70.0099 16.3576 69.9559 16.0336 69.9424 15.7096C69.9424 15.5746 69.9154 15.4666 69.7534 15.4126C69.4969 15.3181 69.3754 15.0886 69.3754 14.8186C69.3754 14.6026 69.2944 14.4001 69.2674 14.1841C69.2674 14.1571 69.2269 14.1436 69.1999 14.1301C69.1864 14.1436 69.1729 14.1571 69.1729 14.1841C69.1594 14.3596 69.1324 14.5216 69.1324 14.6971C69.0919 15.3451 69.0379 15.9931 68.9974 16.6276C68.9704 16.8841 68.9569 17.1406 68.9029 17.3971C68.8759 17.5051 68.9974 17.6536 68.8624 17.7211C68.7679 17.7616 68.6464 17.7211 68.5384 17.7346C68.3494 17.7481 68.1739 17.7616 67.9849 17.7751C67.7824 17.7886 67.6069 17.6266 67.6474 17.4376C67.7284 17.1001 67.6339 16.8031 67.5799 16.4791C67.4854 15.8581 67.2559 15.2641 67.2154 14.6431C67.1749 14.0491 66.9589 13.4956 66.8779 12.9016C66.8374 12.5776 66.7969 12.2536 66.7969 11.9296C66.7969 11.8351 66.8239 11.7811 66.9184 11.8081C67.0264 11.8486 67.1344 11.7811 67.2289 11.7676C67.3099 11.7541 67.3909 11.7136 67.4854 11.7001C67.7554 11.6596 67.7959 11.6866 67.8364 11.9701C67.9849 12.7666 68.1199 13.5631 68.2549 14.3596C68.2549 14.3866 68.2684 14.4271 68.2684 14.4541C68.2684 14.4676 68.2954 14.4946 68.3089 14.4811C68.3224 14.4811 68.3494 14.4676 68.3629 14.4406C68.4034 14.3866 68.3899 14.3191 68.3899 14.2516C68.3899 14.0626 68.4034 13.8601 68.3899 13.6711C68.3899 13.4011 68.4034 13.1311 68.5114 12.8746C68.5519 12.7801 68.5384 12.6856 68.5249 12.5911C68.4979 12.3616 68.5114 12.1321 68.5789 11.9161C68.6329 11.7271 68.6734 11.7001 68.8759 11.7001C69.0109 11.7271 69.1054 11.7271 69.1999 11.7136C69.1999 11.7271 69.1999 11.7271 69.1999 11.7136Z" fill="url(#paint2_linear_357_1744)"/>
<path d="M81.4314 13.7387C81.4314 13.9817 81.4314 14.2112 81.4314 14.4542C81.4314 14.5352 81.4314 14.6297 81.4179 14.7107C81.3774 14.8187 81.3909 14.9267 81.4179 15.0347C81.4584 15.2642 81.4719 15.5072 81.4044 15.7367C81.3639 15.9122 81.3774 16.1012 81.3774 16.2902C81.3774 16.3982 81.3369 16.4387 81.2424 16.4657C80.6754 16.6007 80.8104 16.6952 80.6349 16.1552C80.4054 15.4397 80.1894 14.7107 80.0544 13.9682C80.0004 13.6577 79.8519 13.3742 79.8114 13.0637C79.8114 13.0502 79.7844 13.0232 79.7709 13.0232C79.7574 13.0232 79.7304 13.0367 79.7169 13.0502C79.7034 13.1177 79.6899 13.1717 79.6899 13.2392C79.6629 13.5902 79.7169 13.9277 79.7709 14.2652C79.8654 14.9537 79.9869 15.6557 80.0409 16.3442C80.0544 16.5467 80.0409 16.5872 79.8384 16.6412C79.7304 16.6682 79.6224 16.6817 79.5144 16.6952C79.2849 16.7357 79.2849 16.7357 79.2039 16.5062C79.1364 16.3037 79.1499 16.1012 79.1499 15.8987C79.1499 15.7637 79.1499 15.6287 79.0824 15.4937C79.0014 15.3452 78.9744 15.1697 78.9744 14.9942C78.9609 14.3867 78.8259 13.7927 78.7314 13.1987C78.6234 12.5102 78.5154 11.8082 78.3939 11.1197C78.3804 11.0252 78.4074 10.9712 78.4884 10.9442C78.8799 10.8362 79.2579 10.7282 79.6629 10.7282C79.8924 10.7282 79.9464 10.7687 80.0139 10.9712C80.1219 11.2817 80.1894 11.6192 80.2569 11.9432C80.3244 12.2942 80.4189 12.6317 80.5539 12.9692C80.5674 13.0097 80.5809 13.0637 80.6349 13.0367C80.6619 13.0232 80.6754 12.9827 80.6754 12.9557C80.7834 12.3077 80.8644 11.6597 80.8914 10.9982C80.9049 10.6337 80.9049 10.6337 81.2694 10.5797C81.5529 10.5392 81.8499 10.4987 82.1334 10.4582C82.2414 10.4447 82.3089 10.4717 82.3359 10.5932C82.3764 10.8227 82.4439 11.0522 82.4979 11.2817C82.5114 11.3492 82.5249 11.4302 82.5249 11.5112C82.5384 11.8757 82.5654 12.2402 82.5789 12.6047C82.5789 12.6857 82.6059 12.7802 82.5789 12.8612C82.4844 13.2122 82.5654 13.5632 82.5924 13.9277C82.5924 14.0087 82.6059 14.0762 82.6194 14.1572C82.6734 14.4812 82.4844 14.7782 82.5519 15.1157C82.6194 15.4397 82.5249 15.7637 82.4574 16.0742C82.4439 16.1417 82.4304 16.1957 82.4034 16.2632C82.3629 16.3847 82.2009 16.4117 82.1199 16.3172C82.0254 16.1957 81.9579 16.0607 81.9444 15.9122C81.9039 15.3992 81.8094 14.8862 81.7419 14.3732C81.6744 13.7927 81.5529 13.2257 81.6069 12.6452C81.6069 12.6047 81.6069 12.5642 81.6069 12.5102C81.6069 12.4697 81.6204 12.3887 81.5394 12.3887C81.4854 12.3887 81.4854 12.4427 81.4854 12.4832C81.4584 12.6587 81.4314 12.8207 81.4314 12.9962C81.4314 13.2662 81.4449 13.4957 81.4314 13.7387C81.4449 13.7387 81.4449 13.7387 81.4314 13.7387Z" fill="url(#paint3_linear_357_1744)"/>
<path d="M74.4119 17.1138C74.2634 17.1138 74.1284 17.0598 73.9934 17.1813C73.9259 17.2353 73.8044 17.1408 73.7909 17.0328C73.7639 16.9113 73.7504 16.7763 73.7504 16.6413C73.6829 15.8313 73.6154 15.0078 73.5344 14.1978C73.4804 13.6443 73.4129 13.1043 73.3184 12.5643C73.2644 12.2538 73.3319 12.2943 72.9944 12.3348C72.8189 12.3483 72.6569 12.3753 72.4949 12.4293C72.3869 12.4698 72.3329 12.4293 72.2924 12.3348C72.2249 12.1728 72.1844 12.0108 72.1979 11.8353C72.2114 11.5653 72.2384 11.5383 72.5219 11.5383C72.6164 11.5383 72.7244 11.5383 72.8054 11.5113C73.3724 11.3628 73.9664 11.3898 74.5334 11.2818C74.7494 11.2413 74.9924 11.3223 75.2084 11.2413C75.2624 11.2278 75.2894 11.2683 75.3029 11.3088C75.3839 11.5518 75.3704 11.7948 75.3839 12.0513C75.3839 12.1053 75.3434 12.1188 75.2894 12.1188C75.1004 12.1458 74.9114 12.1728 74.7089 12.1863C74.5064 12.1998 74.4524 12.2538 74.4659 12.4428C74.4794 12.6858 74.4929 12.9423 74.5199 13.1853C74.5874 13.8333 74.6009 14.4948 74.7224 15.1428C74.7629 15.3993 74.7224 15.6828 74.7764 15.9393C74.8304 16.2093 74.8844 16.4928 74.9249 16.7628C74.9654 17.0328 74.9249 17.0868 74.6414 17.1003C74.5604 17.1138 74.4929 17.1138 74.4119 17.1138Z" fill="url(#paint4_linear_357_1744)"/>
<path d="M78.1927 15.0344C78.1657 15.3314 78.2467 15.6554 78.2467 15.9929C78.2467 16.0739 78.2467 16.1684 78.2467 16.2494C78.2467 16.6274 78.1117 16.7219 77.7337 16.6139C77.6257 16.5869 77.5447 16.6004 77.4502 16.6139C77.3287 16.6409 77.2612 16.5869 77.2612 16.4654C77.2612 16.0604 77.1397 15.6689 77.1127 15.2774C77.0587 14.2919 76.8697 13.3334 76.8697 12.3479C76.8697 11.9834 76.9102 11.6189 76.7887 11.2544C76.7482 11.1194 76.8157 10.9844 76.7752 10.8359C76.7617 10.7684 76.8292 10.7414 76.8832 10.7414C77.0182 10.7414 77.1667 10.7414 77.3017 10.7414C77.4232 10.7414 77.5312 10.7414 77.6392 10.6739C77.7742 10.5929 77.8957 10.6469 77.9092 10.8089C77.9362 11.0789 77.9497 11.3489 77.9632 11.6189C78.0307 12.6719 78.0982 13.7249 78.1657 14.7914C78.1927 14.8589 78.1927 14.9264 78.1927 15.0344Z" fill="url(#paint5_linear_357_1744)"/>
<path d="M75.7752 12.1189C75.6132 12.1189 75.5727 12.1054 75.5592 11.9434C75.5457 11.7409 75.5322 11.5384 75.4917 11.3359C75.4782 11.2684 75.5052 11.2144 75.5727 11.1874C75.6267 11.1739 75.6672 11.1469 75.7212 11.1334C75.9912 11.0794 76.0452 11.1199 76.0722 11.3899C76.0857 11.5519 76.0992 11.7139 76.1127 11.8624C76.1262 12.0244 76.1127 12.0514 75.9507 12.0784C75.8967 12.1189 75.8292 12.1189 75.7752 12.1189Z" fill="url(#paint6_linear_357_1744)"/>
<path d="M59.278 15.9123C59.1025 15.6558 58.9 15.4398 58.6165 15.3048C58.306 15.1563 58.036 14.9268 57.7795 14.6973C57.5635 14.5218 57.4555 14.2788 57.4555 13.9818C57.4555 13.7523 57.5365 13.6308 57.82 13.6578C57.901 13.6713 57.9955 13.6983 58.063 13.7253C58.171 13.7658 58.2385 13.8333 58.252 13.9683C58.2655 14.0898 58.279 14.1978 58.306 14.3193C58.333 14.4408 58.36 14.4678 58.4815 14.4273C58.63 14.3868 58.765 14.3463 58.9135 14.3058C59.0215 14.2788 59.1565 14.3598 59.2105 14.2518C59.251 14.1708 59.2105 14.0493 59.2105 13.9413C59.197 13.6578 59.089 13.4148 58.9135 13.1988C58.6975 12.9423 58.414 12.7533 58.063 12.7398C57.793 12.7263 57.5365 12.8208 57.307 12.9828C57.1585 13.0908 57.0235 13.2123 56.9155 13.3608C56.8885 13.4013 56.8615 13.4553 56.821 13.4283C56.794 13.4148 56.7805 13.3608 56.7805 13.3068C56.767 13.1718 56.7535 13.0503 56.74 12.9153C56.74 12.8208 56.686 12.7803 56.5915 12.7938C56.443 12.8073 56.2945 12.8208 56.146 12.8478C56.011 12.8613 55.93 12.8343 55.8355 12.7263C55.525 12.3348 55.1065 12.0918 54.6475 11.9028C54.3235 11.7678 54.013 11.6328 53.689 11.5113C53.068 11.2683 52.4065 11.1468 51.745 11.0793C51.637 11.0658 51.556 11.0928 51.475 11.1603C51.1105 11.4573 50.8 11.7948 50.611 12.2268C50.476 12.5508 50.3275 12.8748 50.206 13.2123C50.152 13.3473 50.098 13.4283 49.936 13.4283C49.4905 13.4553 49.0315 13.5093 48.586 13.5633C48.397 13.5768 48.397 13.5768 48.397 13.7793C48.4105 14.4543 48.4375 15.1158 48.4645 15.7908C48.4645 15.8988 48.505 15.9798 48.5725 16.0473C48.7075 16.1823 48.8425 16.3308 48.9775 16.4658C49.072 16.5738 49.072 16.5873 48.9505 16.6413C48.6805 16.7628 48.397 16.8843 48.127 17.0193C47.8705 17.1408 47.6815 17.3433 47.56 17.6133C47.533 17.6673 47.506 17.7348 47.479 17.7888C47.452 17.8833 47.3845 17.9238 47.2765 17.9103C47.182 17.8968 47.0875 17.8968 46.9795 17.8968C46.102 17.8563 45.211 17.8158 44.2525 17.7753C44.023 17.7753 43.7125 17.7753 43.3885 17.7753C42.3085 17.7618 41.2285 17.7753 40.162 17.9238C39.19 18.0588 38.218 18.2208 37.2595 18.3963C36.9355 18.4503 36.625 18.5178 36.301 18.5853C36.1525 18.6123 36.139 18.6393 36.1525 18.7743C36.1795 19.1253 36.22 19.4898 36.2605 19.8408C36.274 19.9218 36.2875 20.0028 36.355 20.0703C36.6115 20.3403 36.76 20.6778 36.868 21.0288C37.111 21.7848 37.192 22.5678 37.1245 23.3643C37.0975 23.6613 37.057 23.9718 36.8815 24.2283C36.7465 24.4038 36.733 24.5793 36.76 24.7683C36.7735 24.8898 36.8005 25.0248 36.8005 25.1598C36.8005 25.2678 36.8545 25.3083 36.9625 25.2948C37.273 25.2543 37.5835 25.2138 37.894 25.1733C38.8525 25.0653 39.7975 24.9438 40.7425 24.7818C41.431 24.6603 42.106 24.4713 42.754 24.1878C43.591 23.8233 44.2255 23.2698 44.644 22.4598C45.1435 21.4878 45.913 20.8128 46.885 20.3403C47.722 19.9353 48.613 19.6788 49.5445 19.5978C50.422 19.5168 51.2995 19.4223 52.1905 19.3278C52.7305 19.2738 53.0275 18.9633 53.068 18.4233C53.0815 18.2343 53.095 18.0318 53.1085 17.8428C53.122 17.5998 53.122 17.3703 53.122 17.1273C53.122 17.0598 53.1355 17.0058 53.23 16.9923C53.77 16.9383 54.283 16.9788 54.769 17.2218C54.8635 17.2623 54.904 17.3163 54.9175 17.4108C54.931 17.4918 54.9445 17.5863 54.958 17.6673C55.0255 18.3558 54.904 19.0173 54.607 19.6518C54.4045 20.0838 54.1885 20.5023 53.9725 20.9208C53.878 21.1098 53.8105 21.2988 53.797 21.5013C53.7565 22.0143 53.824 22.5138 53.851 23.0268C53.851 23.1078 53.905 23.1348 53.986 23.1348C54.148 23.1213 54.31 23.0943 54.472 23.0808C55.282 23.0133 56.0785 22.9323 56.8885 22.8648C56.9695 22.8513 57.064 22.8378 57.145 22.8243C57.172 22.8243 57.199 22.7973 57.2125 22.7703C57.253 22.6623 57.172 22.4463 57.0775 22.3653C56.9695 22.2843 56.848 22.2033 56.7265 22.1358C56.605 22.0548 56.5105 21.9603 56.4295 21.8388C56.3485 21.7173 56.362 21.7038 56.497 21.6363C56.875 21.4743 56.956 21.3393 56.8885 20.9343C56.875 20.8128 56.8345 20.7048 56.8075 20.5833C56.794 20.5158 56.767 20.4618 56.7535 20.3943C56.713 20.1783 56.7265 20.1243 56.929 20.0433C57.1045 19.9758 57.199 19.8408 57.2665 19.6788C57.307 19.5843 57.3205 19.4763 57.334 19.3683C57.361 19.0578 57.3475 18.7473 57.3205 18.4368C57.3205 18.4098 57.3205 18.3558 57.334 18.3423C57.3745 18.3153 57.415 18.3423 57.442 18.3828C57.4825 18.4233 57.523 18.4503 57.5635 18.4908C57.82 18.6933 58.1035 18.7743 58.4275 18.6258C58.5895 18.5583 58.7515 18.5178 58.9135 18.4503C59.3185 18.2883 59.548 17.9508 59.6425 17.5593C59.7775 17.0058 59.629 16.4253 59.278 15.9123ZM58.7515 17.5188C58.738 17.6133 58.6975 17.6808 58.603 17.7078C58.495 17.7348 58.4005 17.7753 58.2925 17.8023C58.225 17.8293 58.1575 17.8023 58.117 17.7483C57.982 17.6133 57.847 17.4648 57.8605 17.2488C57.8605 17.2218 57.8605 17.2083 57.8605 17.1813C57.874 16.9113 57.8335 16.9518 57.604 16.9923C57.496 17.0058 57.388 17.0328 57.28 17.0463C57.2125 17.0598 57.1585 17.0463 57.145 16.9518C57.118 16.5468 57.091 16.1283 57.0775 15.7233C57.0775 15.6963 57.064 15.6558 57.1045 15.6423C57.1315 15.6423 57.172 15.6558 57.1855 15.6693C57.334 15.7908 57.496 15.9123 57.6445 16.0338C57.766 16.1283 57.874 16.2363 58.036 16.2498C58.0765 16.2498 58.1305 16.2633 58.144 16.3173C58.198 16.4793 58.3465 16.5603 58.4815 16.6548C58.6705 16.7763 58.7515 16.9518 58.7515 17.1678C58.7515 17.2218 58.765 17.2758 58.765 17.3568C58.7515 17.3973 58.765 17.4513 58.7515 17.5188Z" fill="url(#paint7_linear_357_1744)"/>
<defs>
<linearGradient id="paint0_linear_357_1744" x1="38.1492" y1="25.9457" x2="97.8592" y2="13.1759" gradientUnits="userSpaceOnUse">
<stop stop-color="#382C21"/>
<stop offset="0.1209" stop-color="#3C2D21"/>
<stop offset="0.2535" stop-color="#4A311F"/>
<stop offset="0.3917" stop-color="#60381D"/>
<stop offset="0.5329" stop-color="#7E411B"/>
<stop offset="0.5646" stop-color="#86431A"/>
<stop offset="0.6292" stop-color="#99561E"/>
<stop offset="0.7944" stop-color="#C48028"/>
<stop offset="0.9236" stop-color="#DE9A2E"/>
<stop offset="1" stop-color="#E8A430"/>
</linearGradient>
<linearGradient id="paint1_linear_357_1744" x1="37.2965" y1="21.9504" x2="97.0066" y2="9.18052" gradientUnits="userSpaceOnUse">
<stop stop-color="#382C21"/>
<stop offset="0.1209" stop-color="#3C2D21"/>
<stop offset="0.2535" stop-color="#4A311F"/>
<stop offset="0.3917" stop-color="#60381D"/>
<stop offset="0.5329" stop-color="#7E411B"/>
<stop offset="0.5646" stop-color="#86431A"/>
<stop offset="0.6292" stop-color="#99561E"/>
<stop offset="0.7944" stop-color="#C48028"/>
<stop offset="0.9236" stop-color="#DE9A2E"/>
<stop offset="1" stop-color="#E8A430"/>
</linearGradient>
<linearGradient id="paint2_linear_357_1744" x1="37.1653" y1="21.345" x2="96.8754" y2="8.57519" gradientUnits="userSpaceOnUse">
<stop stop-color="#382C21"/>
<stop offset="0.1209" stop-color="#3C2D21"/>
<stop offset="0.2535" stop-color="#4A311F"/>
<stop offset="0.3917" stop-color="#60381D"/>
<stop offset="0.5329" stop-color="#7E411B"/>
<stop offset="0.5646" stop-color="#86431A"/>
<stop offset="0.6292" stop-color="#99561E"/>
<stop offset="0.7944" stop-color="#C48028"/>
<stop offset="0.9236" stop-color="#DE9A2E"/>
<stop offset="1" stop-color="#E8A430"/>
</linearGradient>
<linearGradient id="paint3_linear_357_1744" x1="37.4888" y1="22.8552" x2="97.1989" y2="10.0853" gradientUnits="userSpaceOnUse">
<stop stop-color="#382C21"/>
<stop offset="0.1209" stop-color="#3C2D21"/>
<stop offset="0.2535" stop-color="#4A311F"/>
<stop offset="0.3917" stop-color="#60381D"/>
<stop offset="0.5329" stop-color="#7E411B"/>
<stop offset="0.5646" stop-color="#86431A"/>
<stop offset="0.6292" stop-color="#99561E"/>
<stop offset="0.7944" stop-color="#C48028"/>
<stop offset="0.9236" stop-color="#DE9A2E"/>
<stop offset="1" stop-color="#E8A430"/>
</linearGradient>
<linearGradient id="paint4_linear_357_1744" x1="37.3201" y1="22.0644" x2="97.0302" y2="9.29456" gradientUnits="userSpaceOnUse">
<stop stop-color="#382C21"/>
<stop offset="0.1209" stop-color="#3C2D21"/>
<stop offset="0.2535" stop-color="#4A311F"/>
<stop offset="0.3917" stop-color="#60381D"/>
<stop offset="0.5329" stop-color="#7E411B"/>
<stop offset="0.5646" stop-color="#86431A"/>
<stop offset="0.6292" stop-color="#99561E"/>
<stop offset="0.7944" stop-color="#C48028"/>
<stop offset="0.9236" stop-color="#DE9A2E"/>
<stop offset="1" stop-color="#E8A430"/>
</linearGradient>
<linearGradient id="paint5_linear_357_1744" x1="37.3676" y1="22.2814" x2="97.0774" y2="9.51169" gradientUnits="userSpaceOnUse">
<stop stop-color="#382C21"/>
<stop offset="0.1209" stop-color="#3C2D21"/>
<stop offset="0.2535" stop-color="#4A311F"/>
<stop offset="0.3917" stop-color="#60381D"/>
<stop offset="0.5329" stop-color="#7E411B"/>
<stop offset="0.5646" stop-color="#86431A"/>
<stop offset="0.6292" stop-color="#99561E"/>
<stop offset="0.7944" stop-color="#C48028"/>
<stop offset="0.9236" stop-color="#DE9A2E"/>
<stop offset="1" stop-color="#E8A430"/>
</linearGradient>
<linearGradient id="paint6_linear_357_1744" x1="36.8703" y1="19.9614" x2="96.5801" y2="7.19163" gradientUnits="userSpaceOnUse">
<stop stop-color="#382C21"/>
<stop offset="0.1209" stop-color="#3C2D21"/>
<stop offset="0.2535" stop-color="#4A311F"/>
<stop offset="0.3917" stop-color="#60381D"/>
<stop offset="0.5329" stop-color="#7E411B"/>
<stop offset="0.5646" stop-color="#86431A"/>
<stop offset="0.6292" stop-color="#99561E"/>
<stop offset="0.7944" stop-color="#C48028"/>
<stop offset="0.9236" stop-color="#DE9A2E"/>
<stop offset="1" stop-color="#E8A430"/>
</linearGradient>
<linearGradient id="paint7_linear_357_1744" x1="37.0302" y1="20.7106" x2="96.7402" y2="7.94081" gradientUnits="userSpaceOnUse">
<stop stop-color="#382C21"/>
<stop offset="0.1209" stop-color="#3C2D21"/>
<stop offset="0.2535" stop-color="#4A311F"/>
<stop offset="0.3917" stop-color="#60381D"/>
<stop offset="0.5329" stop-color="#7E411B"/>
<stop offset="0.5646" stop-color="#86431A"/>
<stop offset="0.6292" stop-color="#99561E"/>
<stop offset="0.7944" stop-color="#C48028"/>
<stop offset="0.9236" stop-color="#DE9A2E"/>
<stop offset="1" stop-color="#E8A430"/>
</linearGradient>
</defs>
</svg>
