<svg width="32" height="32" viewBox="0 0 32 32" fill="none" xmlns="http://www.w3.org/2000/svg">
<path d="M16 28C12.9333 28 10.2613 26.9836 7.984 24.9507C5.70667 22.9178 4.40089 20.3787 4.06667 17.3333H6.8C7.11111 19.6444 8.13911 21.5556 9.884 23.0667C11.6289 24.5778 13.6676 25.3333 16 25.3333C18.6 25.3333 20.8058 24.428 22.6173 22.6173C24.4289 20.8067 25.3342 18.6009 25.3333 16C25.3333 13.4 24.428 11.1947 22.6173 9.384C20.8067 7.57333 18.6009 6.66756 16 6.66667C14.4667 6.66667 13.0333 7.02222 11.7 7.73333C10.3667 8.44444 9.24444 9.42222 8.33333 10.6667H12V13.3333H4V5.33333H6.66667V8.46667C7.8 7.04444 9.18356 5.94444 10.8173 5.16667C12.4511 4.38889 14.1787 4 16 4C17.6667 4 19.228 4.31689 20.684 4.95067C22.14 5.58444 23.4067 6.43956 24.484 7.516C25.5613 8.59422 26.4169 9.86089 27.0507 11.316C27.6844 12.7711 28.0009 14.3324 28 16C28 17.6667 27.6836 19.228 27.0507 20.684C26.4178 22.14 25.5622 23.4067 24.484 24.484C23.4058 25.5613 22.1391 26.4169 20.684 27.0507C19.2289 27.6844 17.6676 28.0009 16 28ZM19.7333 21.6L14.6667 16.5333V9.33333H17.3333V15.4667L21.6 19.7333L19.7333 21.6Z" fill="#9E8550"/>
</svg>
