<svg width="32" height="32" viewBox="0 0 32 32" fill="none" xmlns="http://www.w3.org/2000/svg">
<path d="M16.0007 5.3335C17.4151 5.3335 18.7717 5.8954 19.7719 6.89559C20.7721 7.89579 21.334 9.25234 21.334 10.6668C21.334 12.0813 20.7721 13.4379 19.7719 14.4381C18.7717 15.4383 17.4151 16.0002 16.0007 16.0002C14.5862 16.0002 13.2296 15.4383 12.2294 14.4381C11.2292 13.4379 10.6673 12.0813 10.6673 10.6668C10.6673 9.25234 11.2292 7.89579 12.2294 6.89559C13.2296 5.8954 14.5862 5.3335 16.0007 5.3335ZM16.0007 18.6668C21.894 18.6668 26.6673 21.0535 26.6673 24.0002V26.6668H5.33398V24.0002C5.33398 21.0535 10.1073 18.6668 16.0007 18.6668Z" fill="white"/>
</svg>
