<svg width="32" height="32" viewBox="0 0 32 32" fill="none" xmlns="http://www.w3.org/2000/svg">
<path d="M9.33323 6.66683H30.6666V12.0002H29.3332V13.3335H21.3332C20.9796 13.3335 20.6405 13.474 20.3904 13.724C20.1404 13.9741 19.9999 14.3132 19.9999 14.6668V16.0002C19.9999 16.7074 19.7189 17.3857 19.2188 17.8858C18.7188 18.3859 18.0405 18.6668 17.3332 18.6668H12.8266C12.3199 18.6668 11.8532 18.9602 11.6266 19.4135L8.3599 25.9335C8.13323 26.3868 7.6799 26.6668 7.17323 26.6668H2.66656C2.66656 26.6668 -1.33344 26.6668 3.9999 18.6668C3.9999 18.6668 7.9999 13.3335 2.66656 13.3335V6.66683H3.9999L4.66656 5.3335H8.66656L9.33323 6.66683ZM18.6666 16.0002V14.6668C18.6666 14.3132 18.5261 13.9741 18.276 13.724C18.026 13.474 17.6869 13.3335 17.3332 13.3335H15.9999C15.9999 13.3335 14.6666 14.6668 15.9999 16.0002C15.2927 16.0002 14.6144 15.7192 14.1143 15.2191C13.6142 14.719 13.3332 14.0407 13.3332 13.3335C12.9796 13.3335 12.6405 13.474 12.3904 13.724C12.1404 13.9741 11.9999 14.3132 11.9999 14.6668V16.0002C11.9999 16.3538 12.1404 16.6929 12.3904 16.943C12.6405 17.193 12.9796 17.3335 13.3332 17.3335H17.3332C17.6869 17.3335 18.026 17.193 18.276 16.943C18.5261 16.6929 18.6666 16.3538 18.6666 16.0002Z" fill="white"/>
</svg>
