<svg width="40" height="40" viewBox="0 0 40 40" fill="none" xmlns="http://www.w3.org/2000/svg">
<path fill-rule="evenodd" clip-rule="evenodd" d="M22.1113 6.75825C22.2335 6.9953 22.2639 7.29888 22.3245 7.90602C22.4395 9.05522 22.497 9.62984 22.7375 9.9451C23.0426 10.345 23.5387 10.5505 24.0373 10.4835C24.4303 10.4306 24.8771 10.0649 25.771 9.33358C26.2433 8.94721 26.4793 8.75402 26.7334 8.67285C27.0561 8.56977 27.4053 8.58717 27.7161 8.72187C27.9608 8.82792 28.1765 9.04363 28.608 9.47508L29.8589 10.7259C30.2902 11.1574 30.506 11.3731 30.6121 11.6179C30.7468 11.9287 30.7641 12.2778 30.6611 12.6005C30.5799 12.8546 30.3867 13.0907 30.0003 13.5629C29.2689 14.4568 28.9033 14.9038 28.8505 15.2968C28.7834 15.7953 28.9889 16.2914 29.3888 16.5965C29.7041 16.837 30.2786 16.8945 31.4279 17.0094C32.0351 17.0701 32.3387 17.1005 32.5757 17.2227C32.8767 17.3781 33.1114 17.6372 33.2358 17.9522C33.334 18.2003 33.334 18.5054 33.334 19.1155V20.8847C33.334 21.4946 33.334 21.7997 33.236 22.0476C33.1114 22.3628 32.8767 22.6221 32.5756 22.7773C32.3386 22.8995 32.0351 22.9299 31.428 22.9905C30.2792 23.1055 29.7048 23.1629 29.3895 23.4033C28.9894 23.7085 28.7838 24.2048 28.851 24.7034C28.904 25.0963 29.2695 25.543 30.0006 26.4366C30.3868 26.9087 30.5799 27.1448 30.6611 27.3987C30.7643 27.7216 30.7468 28.0707 30.6121 28.3817C30.506 28.6264 30.2904 28.842 29.859 29.2733L28.608 30.5244C28.1767 30.9557 27.9609 31.1714 27.7162 31.2776C27.4053 31.4122 27.0562 31.4296 26.7335 31.3266C26.4794 31.2454 26.2433 31.0522 25.771 30.6658C24.8771 29.9344 24.4303 29.5687 24.0373 29.5159C23.5387 29.4489 23.0426 29.6544 22.7375 30.0542C22.497 30.3695 22.4396 30.9442 22.3247 32.0936C22.2639 32.7011 22.2335 33.0047 22.1112 33.2419C21.9559 33.5429 21.6968 33.7773 21.3819 33.9019C21.1338 34 20.8286 34 20.2182 34H18.4495C17.8393 34 17.5343 34 17.2862 33.9019C16.9712 33.7774 16.7121 33.5428 16.5567 33.2418C16.4345 33.0047 16.4041 32.7011 16.3434 32.0939C16.2284 30.9446 16.171 30.3701 15.9305 30.0548C15.6254 29.655 15.1293 29.4494 14.6308 29.5165C14.2378 29.5693 13.7908 29.935 12.8969 30.6665C12.4246 31.0529 12.1885 31.2461 11.9344 31.3271C11.6117 31.4303 11.2626 31.4128 10.9518 31.2781C10.707 31.1721 10.4913 30.9564 10.0598 30.5249L8.80902 29.274C8.37756 28.8427 8.16182 28.6269 8.05578 28.3822C7.9211 28.0713 7.90368 27.7223 8.00677 27.3996C8.08794 27.1455 8.28114 26.9093 8.66752 26.4371C9.3989 25.5432 9.76458 25.0963 9.81744 24.7032C9.8845 24.2048 9.67898 23.7086 9.27907 23.4035C8.96381 23.163 8.3892 23.1055 7.23999 22.9905C6.63285 22.9299 6.32929 22.8995 6.09224 22.7773C5.79117 22.6219 5.55661 22.3628 5.43205 22.0478C5.33398 21.7997 5.33398 21.4946 5.33398 20.8845V19.1156C5.33398 18.5054 5.33398 18.2002 5.4321 17.9521C5.55665 17.6372 5.79114 17.3781 6.09211 17.2228C6.32922 17.1005 6.63286 17.0701 7.24015 17.0094C8.38967 16.8944 8.96445 16.837 9.27977 16.5963C9.67951 16.2913 9.88496 15.7953 9.818 15.2969C9.76518 14.9038 9.39937 14.4567 8.66778 13.5625C8.28121 13.0901 8.08794 12.8539 8.00678 12.5997C7.90378 12.2771 7.92118 11.9281 8.05577 11.6174C8.16182 11.3726 8.37763 11.1567 8.80925 10.7251L10.0599 9.47448C10.4914 9.043 10.7071 8.82726 10.9519 8.72122C11.2627 8.58654 11.6118 8.56914 11.9345 8.67221C12.1886 8.75338 12.4247 8.94661 12.8971 9.33306C13.7908 10.0643 14.2377 10.43 14.6306 10.4829C15.1292 10.55 15.6256 10.3445 15.9307 9.94439C16.1711 9.62918 16.2285 9.05473 16.3434 7.90583C16.4041 7.29886 16.4344 6.99537 16.5567 6.75838C16.7119 6.45721 16.9712 6.22257 17.2863 6.09801C17.5343 6 17.8393 6 18.4493 6H20.2185C20.8286 6 21.1337 6 21.3818 6.09807C21.6968 6.22263 21.9559 6.45718 22.1113 6.75825ZM19.334 24C21.334 23.9997 23.334 22.6667 23.334 20C23.334 17.9521 21.88 16.0002 19.334 16C17.0007 15.9999 15.3342 17.4659 15.334 20C15.3338 22.7773 17.0007 23.9632 19.334 24Z" fill="white"/>
</svg>
