<svg width="32" height="32" viewBox="0 0 32 32" fill="none" xmlns="http://www.w3.org/2000/svg">
<path d="M22.6667 15.9999C22.6667 16.7072 22.9476 17.3854 23.4477 17.8855C23.9478 18.3856 24.6261 18.6666 25.3333 18.6666C26.0406 18.6666 26.7189 18.3856 27.219 17.8855C27.7191 17.3854 28 16.7072 28 15.9999C27.9999 13.2513 27.0562 10.5861 25.3267 8.44985C23.5973 6.31359 21.1869 4.83578 18.4985 4.2635C15.8102 3.69121 13.0069 4.05915 10.5573 5.30579C8.10769 6.55244 6.16029 8.60222 5.04069 11.1124C3.92109 13.6226 3.69714 16.4411 4.4063 19.0966C5.11545 21.7521 6.71473 24.0837 8.93673 25.7015C11.1587 27.3194 13.8688 28.1254 16.6137 27.9848C19.3587 27.8442 21.9722 26.7656 24.0173 24.9292" stroke="white" stroke-width="2" stroke-linecap="round" stroke-linejoin="round"/>
<path d="M9.33398 15.9997C9.33398 17.7678 10.0364 19.4635 11.2866 20.7137C12.5368 21.964 14.2325 22.6663 16.0007 22.6663C17.7688 22.6663 19.4645 21.964 20.7147 20.7137C21.9649 19.4635 22.6673 17.7678 22.6673 15.9997C22.6673 14.2316 21.9649 12.5359 20.7147 11.2856C19.4645 10.0354 17.7688 9.33301 16.0007 9.33301C14.2325 9.33301 12.5368 10.0354 11.2866 11.2856C10.0364 12.5359 9.33398 14.2316 9.33398 15.9997Z" stroke="white" stroke-width="2" stroke-linecap="round" stroke-linejoin="round"/>
<path d="M14.666 15.9998C14.666 16.3535 14.8065 16.6926 15.0565 16.9426C15.3066 17.1927 15.6457 17.3332 15.9993 17.3332C16.353 17.3332 16.6921 17.1927 16.9422 16.9426C17.1922 16.6926 17.3327 16.3535 17.3327 15.9998C17.3327 15.6462 17.1922 15.3071 16.9422 15.057C16.6921 14.807 16.353 14.6665 15.9993 14.6665C15.6457 14.6665 15.3066 14.807 15.0565 15.057C14.8065 15.3071 14.666 15.6462 14.666 15.9998Z" stroke="white" stroke-width="2" stroke-linecap="round" stroke-linejoin="round"/>
<path d="M14.666 15.9998C14.666 16.3535 14.8065 16.6926 15.0565 16.9426C15.3066 17.1927 15.6457 17.3332 15.9993 17.3332C16.353 17.3332 16.6921 17.1927 16.9422 16.9426C17.1922 16.6926 17.3327 16.3535 17.3327 15.9998C17.3327 15.6462 17.1922 15.3071 16.9422 15.057C16.6921 14.807 16.353 14.6665 15.9993 14.6665C15.6457 14.6665 15.3066 14.807 15.0565 15.057C14.8065 15.3071 14.666 15.6462 14.666 15.9998Z" stroke="white" stroke-width="2" stroke-linecap="round" stroke-linejoin="round"/>
</svg>
